<?xml version="1.0" standalone="no"?>
<!DOCTYPE svg PUBLIC "-//W3C//DTD SVG 1.1//EN" "http://www.w3.org/Graphics/SVG/1.1/DTD/svg11.dtd" >
<svg xmlns="http://www.w3.org/2000/svg">
<metadata></metadata>
<defs>
<font id="metace_normal_linmetacenormal" horiz-adv-x="1024" >
<font-face units-per-em="2048" ascent="1638" descent="-410" />
<missing-glyph horiz-adv-x="681" />
<glyph horiz-adv-x="2048" />
<glyph horiz-adv-x="2048" />
<glyph unicode="&#xd;" horiz-adv-x="681" />
<glyph unicode=" "  horiz-adv-x="681" />
<glyph unicode="&#x09;" horiz-adv-x="681" />
<glyph unicode="&#xa0;" horiz-adv-x="681" />
<glyph unicode="!" horiz-adv-x="544" d="M145 113q0 53 37 89t88 36t88 -36t37 -87q0 -53 -36.5 -91t-88.5 -38q-51 0 -88 36.5t-37 90.5zM168 1405l201 27l-39 -1026h-123z" />
<glyph unicode="&#x22;" horiz-adv-x="1062" d="M307 958v492h148v-492h-148zM608 958v492h148v-492h-148z" />
<glyph unicode="#" horiz-adv-x="1138" d="M61 436v135h222l41 312h-201v135h221l62 432h137l-62 -432h258l62 432h137l-61 -432h200v-135h-219l-43 -312h201v-135h-221l-62 -436h-137l61 436h-258l-61 -436h-137l61 436h-201zM420 571h258l43 312h-258z" />
<glyph unicode="$" horiz-adv-x="1134" d="M70 100l73 131q170 -121 359 -120v551l-51 16q-188 59 -250 125q-88 92 -88 229q0 164 106.5 272.5t282.5 127.5v172h121v-170q197 -16 368 -134l-73 -120q-164 106 -295 116v-489l67 -21q170 -51 248 -141q92 -106 92 -248q0 -207 -194 -338q-90 -61 -213 -79v-199h-121 v192q-225 0 -432 127zM295 1067q0 -149 207 -223v448q-207 -33 -207 -225zM623 119q66 10 120 53q100 76 101 201q0 174 -221 250v-504z" />
<glyph unicode="%" horiz-adv-x="1701" d="M70 1067q0 164 87 256t240 92q172 0 262 -117q70 -90 70 -243q0 -186 -121 -277q-86 -63 -209 -63q-154 0 -241.5 94t-87.5 258zM209 1083q0 -137 45 -196.5t152 -59.5q121 0 161 91q25 55 25 129q0 127 -39 186q-47 70 -158 70q-104 0 -149 -64q-37 -51 -37 -156zM453 0 l682 1395h135l-682 -1395h-135zM983 332q0 164 87 256t241 92q172 0 262 -117q70 -90 69 -244q0 -186 -120 -276q-86 -63 -209 -63q-154 0 -242 94t-88 258zM1122 348q0 -137 45 -196.5t152 -59.5q121 0 162 90q25 55 24 129q0 128 -39 187q-47 70 -157 69q-104 0 -150 -63 q-37 -51 -37 -156z" />
<glyph unicode="&#x26;" horiz-adv-x="1427" d="M160 348q0 117 67 203q49 61 219 154q-123 106 -165 190q-33 63 -33 125q0 139 108.5 231t255.5 92q176 0 285 -98q92 -84 92 -217q0 -80 -39 -141q-51 -78 -137 -129l-117 -68l324 -321q31 46 39 161q4 41 2 148l141 4q0 -141 -12 -223q-16 -109 -64 -201l258 -256h-213 l-135 131q-61 -76 -169.5 -120t-231.5 -44q-213 0 -336 94q-139 106 -139 285zM336 336q0 -145 135 -209q70 -33 168 -33t186 39q82 37 123 92l-405 396q-207 -98 -207 -285zM420 1040q0 -84 94 -178q47 -47 90 -84q147 72 189 154q20 43 20 98q0 86 -55.5 141.5 t-143.5 55.5t-151 -62q-43 -41 -43 -125z" />
<glyph unicode="'" horiz-adv-x="569" d="M211 958v492h147v-492h-147z" />
<glyph unicode="(" horiz-adv-x="655" d="M199 657q0 463 194 705q123 154 283 215l39 -78q-238 -141 -299 -366q-53 -195 -54 -471q0 -451 123 -668q82 -145 236 -230l-45 -81q-272 104 -395 421q-82 213 -82 553z" />
<glyph unicode=")" horiz-adv-x="659" d="M-61 1499l45 82q272 -104 395 -422q82 -213 82 -553q0 -463 -195 -704q-123 -154 -282 -215l-39 77q238 141 299 367q53 195 53 471q0 451 -123 668q-82 145 -235 229z" />
<glyph unicode="*" horiz-adv-x="909" d="M63 1124l39 119l291 -98v305h123v-305l291 98l39 -119l-289 -98l182 -244l-100 -77l-184 251l-179 -251l-102 77l178 244z" />
<glyph unicode="+" d="M74 438v148h364v364h148v-364h364v-148h-364v-364h-148v364h-364z" />
<glyph unicode="," horiz-adv-x="546" d="M117 -203q121 59 137 183q-10 -2 -23 -3q-47 0 -79.5 39t-32.5 93q0 61 42 104t101 43q72 0 117 -55.5t45 -141.5q0 -113 -78 -211q-58 -72 -162 -135l-10 -6z" />
<glyph unicode="-" horiz-adv-x="618" d="M117 469v156h391v-156h-391z" />
<glyph unicode="." horiz-adv-x="544" d="M135 115q0 57 39 96t96 39q59 0 99.5 -39t40.5 -96t-40 -99.5t-96 -42.5q-57 0 -98 41.5t-41 100.5z" />
<glyph unicode="/" horiz-adv-x="546" d="M-59 -303l530 1853h135l-530 -1853h-135z" />
<glyph unicode="0" horiz-adv-x="1095" d="M78 688q0 137 37 260t100.5 215t148.5 146.5t179 54.5q84 0 147.5 -27.5t109.5 -67.5t77.5 -86t50.5 -85q23 -47 40 -101.5t28.5 -112t16.5 -112.5t5 -102q0 -158 -35 -287t-98.5 -221t-150.5 -143.5t-193 -51.5q-84 0 -147.5 29t-123.5 94q-78 86 -135 236.5t-57 361.5z M260 680q0 -113 10.5 -203t30.5 -149q37 -111 102.5 -173.5t141.5 -62.5q70 0 134 53.5t103 143.5q31 72 43.5 167t12.5 212q0 111 -8 187.5t-35 154.5q-35 109 -99.5 167t-148.5 58q-61 0 -118.5 -45t-98.5 -129q-70 -139 -70 -381z" />
<glyph unicode="1" horiz-adv-x="1095" d="M158 1061l393 276h127v-1208h207v-129h-582v129h213v1016q-27 -18 -51 -35q-23 -16 -49.5 -31.5t-50.5 -27.5q-23 -12 -52.5 -25.5t-56.5 -26.5q-31 -14 -63 -26z" />
<glyph unicode="2" horiz-adv-x="1095" d="M111 1169q115 98 221 145.5t217 47.5q80 0 149.5 -29.5t120.5 -80t81 -120t30 -149.5q0 -88 -35 -182t-96 -180q-72 -96 -181 -213q-51 -53 -98 -102.5t-87 -88.5t-68.5 -63.5t-40.5 -30.5q29 2 59 4q27 2 56.5 3t58.5 1h434l-33 -131h-782v92q59 41 134 111.5t173 181.5 q84 94 144.5 174t98.5 148.5t56 130t18 118.5q0 115 -69.5 190t-177.5 75q-37 0 -68 -6.5t-63.5 -19.5t-72.5 -36.5t-93 -56.5l-17 -10z" />
<glyph unicode="3" horiz-adv-x="1095" d="M98 1190q25 23 58.5 46.5t70.5 42.5t76 35.5t76 26.5q35 10 71.5 15.5t73.5 5.5q86 0 157 -24.5t123 -69.5t80.5 -105.5t28.5 -134.5q0 -111 -65.5 -191.5t-181.5 -111.5q90 -23 157 -74q66 -51 96.5 -109.5t30.5 -131.5q0 -68 -24.5 -129.5t-66.5 -114.5t-99.5 -95 t-122.5 -71q-72 -31 -172 -49.5t-211 -18.5q-37 0 -54.5 1t-45.5 6l-37 110q14 -2 25.5 -4t21.5 -3t23.5 -1h33.5q135 0 242.5 27.5t200.5 111.5q55 49 80.5 112.5t25.5 133.5q0 84 -46 145.5t-124 83.5q-23 6 -41 10.5t-42.5 5.5t-63.5 2t-101 1h-20v114h18 q111 0 174.5 4.5t100.5 20.5q53 23 83.5 76t30.5 119q0 98 -66.5 158.5t-176.5 60.5q-49 0 -103.5 -11.5t-95.5 -33.5q-27 -14 -59.5 -33t-67.5 -43z" />
<glyph unicode="4" horiz-adv-x="1095" d="M86 256v127l485 958h179l-422 -835q-12 -25 -25.5 -48.5t-23.5 -41.5q-12 -23 -25 -39q12 0 27 2q12 2 25 3t28 1h317q10 0 17.5 -1t13.5 -1h14q-2 14 -2 25v32q0 27 2 52.5t4 60.5l25 362l127 39v-508q0 -14 -1 -25t-1 -20v-18h14q6 0 14.5 1t18.5 1h121v-127h-113h-39 q-8 0 -16 2v-25q0 -10 1 -24t1 -31v-186l-158 -47v231v55q0 14 2 27q-12 -2 -24 -2h-58h-528z" />
<glyph unicode="5" horiz-adv-x="1095" d="M164 70q20 -10 37.5 -15.5t34 -8.5t35 -4t44.5 -1q94 0 175 28.5t140.5 79t94.5 119t35 146.5q0 94 -51 164q-39 53 -99.5 77.5t-156.5 24.5q-74 0 -143.5 -11.5t-114.5 -33.5l65 690h606l-24 -135h-436l-35 -395q27 2 44 4t31.5 3t28.5 1h35q223 0 340 -137 q41 -51 63.5 -117t22.5 -133q0 -61 -18.5 -123t-52.5 -115t-81 -98t-104 -74q-70 -35 -161 -56.5t-175 -21.5q-23 0 -40 1t-34.5 2t-35 5.5t-41.5 10.5z" />
<glyph unicode="6" horiz-adv-x="1095" d="M100 522q0 166 47.5 292t149.5 247q115 135 251 221t302 135l39 -102q-39 -12 -66.5 -22.5t-51 -20.5t-47.5 -23.5t-52 -31.5q-78 -49 -153 -120t-118 -136q-33 -51 -54 -108.5t-42 -143.5q53 49 134 77.5t165 28.5q152 0 268 -98q74 -59 107 -131t33 -174 q0 -96 -35 -177t-95.5 -141.5t-142.5 -94.5t-178 -34q-104 0 -189 40t-145.5 112.5t-93.5 175t-33 229.5zM289 479q0 -113 21.5 -180.5t49.5 -108.5q74 -100 201 -100q123 0 194.5 85t71.5 233q0 131 -67 204q-35 37 -85.5 58.5t-103.5 21.5q-70 0 -140.5 -27.5 t-135.5 -80.5q-4 -35 -5 -55.5t-1 -49.5z" />
<glyph unicode="7" horiz-adv-x="1095" d="M127 1188l39 135h854l-39 -164l-143 -209q-27 -39 -60 -92t-64.5 -107.5t-58 -103.5t-43.5 -80q-98 -195 -150 -339t-69 -226q0 -2 -1 -7l-3 -15l-199 -50q8 43 15.5 75t16.5 62.5t22.5 65.5t34.5 82q41 98 93 205.5t107 212.5q96 178 194.5 324.5t182.5 232.5 q-27 -2 -57 -2h-131h-541z" />
<glyph unicode="8" horiz-adv-x="1095" d="M90 344q0 70 26.5 133.5t71.5 108.5q41 41 92.5 71.5t98.5 47.5q-117 53 -179.5 136t-62.5 181q0 78 40 154.5t104 117.5q47 31 124.5 49.5t163.5 18.5q88 0 161 -22.5t124 -63.5t80 -98.5t29 -126.5q0 -176 -195 -289q-31 -16 -47 -24.5t-45 -18.5l129 -62 q109 -51 156 -126.5t47 -161.5q0 -88 -38 -165t-110 -136q-127 -102 -315 -103q-98 0 -181 29t-144.5 79t-95.5 119.5t-34 151.5zM254 354q0 -123 83 -195.5t220 -72.5q127 0 205 67.5t78 176.5q-1 90 -54 147q-35 37 -103.5 77t-203.5 101q-74 -41 -112.5 -70.5 t-63.5 -66.5q-25 -35 -37 -77t-12 -87zM293 1036q-1 -92 69 -149q33 -29 82.5 -56.5t126.5 -60.5q125 66 180.5 130.5t55.5 137.5q0 94 -69.5 150.5t-188.5 56.5q-117 0 -186.5 -56t-69.5 -153z" />
<glyph unicode="9" horiz-adv-x="1095" d="M70 0q31 4 55.5 8t46 10.5t44 14.5t50.5 20q137 59 261 155.5t202 237.5q10 16 25.5 48t27.5 67q-115 -80 -254 -80q-90 0 -164.5 32t-129 88t-85 135t-30.5 171q0 98 35.5 182.5t97 145.5t145.5 96t181 35q176 0 303 -127q70 -72 102.5 -159t32.5 -208q0 -174 -73 -349 t-200 -314q-72 -78 -153.5 -134.5t-192.5 -103.5q-43 -18 -72.5 -29.5t-56 -19.5t-54.5 -12t-64 -8zM299 905q0 -141 66.5 -222t183.5 -81q72 0 135.5 25.5t134.5 83.5q12 53 16.5 83.5t4.5 75.5q0 82 -19.5 151t-55.5 117t-85 74.5t-111 26.5q-123 0 -196.5 -92t-73.5 -242 z" />
<glyph unicode=":" horiz-adv-x="618" d="M174 113q0 59 41 99t98 40q55 0 95.5 -40t40.5 -97t-40 -98.5t-100 -41.5q-57 0 -96 40.5t-39 97.5zM174 758q0 59 41 100t98 41q55 0 95.5 -40t40.5 -97t-40 -98t-98 -41q-57 0 -97 39t-40 96z" />
<glyph unicode=";" horiz-adv-x="620" d="M160 -203q121 59 139 183q-12 -2 -23 -3q-47 0 -79.5 39t-32.5 93q0 61 42 104t101 43q72 0 117 -55.5t45 -141.5q0 -113 -78 -211q-55 -69 -164 -135l-10 -6zM162 766q0 53 40 92t97 39t98 -40t41 -95q0 -59 -40 -100t-97 -41t-98 43t-41 102z" />
<glyph unicode="&#x3c;" horiz-adv-x="643" d="M27 614l391 527l135 -88l-328 -439l328 -438l-135 -88z" />
<glyph unicode="=" horiz-adv-x="1363" d="M147 393v135h1070v-135h-1070zM147 713v135h1070v-135h-1070z" />
<glyph unicode="&#x3e;" horiz-adv-x="643" d="M78 176l328 438l-328 439l135 88l393 -527l-393 -526z" />
<glyph unicode="?" horiz-adv-x="731" d="M18 1303q158 121 377 120q141 0 228.5 -81.5t87.5 -219.5q0 -127 -95 -231q-16 -16 -119.5 -99.5t-103.5 -230.5q0 -49 13 -106h-138q-18 74 -18 139q0 164 115 272q61 49 122 99q61 61 62 149q0 76 -52.5 123t-131.5 47q-98 0 -197 -49q-23 -10 -82 -45zM213 113 q0 57 40 97t97 40t98 -40t41 -97q0 -59 -39.5 -100.5t-97.5 -41.5q-57 0 -98 42.5t-41 99.5z" />
<glyph unicode="@" horiz-adv-x="1638" d="M90 725q0 317 224.5 539.5t541.5 222.5q287 0 489.5 -178.5t202.5 -448.5q0 -248 -168 -428q-150 -164 -311 -164q-125 0 -131 135h-4q-117 -135 -256 -135q-129 0 -209 91.5t-80 226.5q0 225 131 397q139 182 346 182q166 0 228 -168h4l37 129h133l-172 -579 q-18 -61 -19 -103q0 -41 49 -41q100 0 193.5 140.5t93.5 306.5q0 231 -172 383q-162 143 -385 143q-264 0 -447.5 -192.5t-183.5 -458.5q0 -272 187.5 -461.5t443.5 -189.5q152 0 292 67.5t224 180.5h129q-98 -166 -271 -262.5t-374 -96.5q-322 0 -544 221.5t-222 540.5z M537 600q0 -84 51 -140.5t127 -56.5q125 0 225 154q92 141 92 281q0 78 -50 135t-116 57q-135 0 -237 -147q-92 -136 -92 -283z" />
<glyph unicode="A" horiz-adv-x="1169" d="M8 0l469 1405h219l465 -1405h-190l-133 432h-525l-135 -432h-170zM360 569h435l-215 688l-70 -206q-8 -27 -150 -482z" />
<glyph unicode="B" horiz-adv-x="1208" d="M188 0v1405h203q328 0 418 -31q109 -37 174.5 -126t65.5 -195q0 -227 -252 -308q129 -33 186 -77q125 -98 125 -283q0 -115 -66.5 -215t-171.5 -137q-90 -33 -319 -33h-363zM350 137h281q129 0 187.5 31t90.5 115q23 57 23 116q0 92 -47 162t-123 86q-66 15 -164 15h-248 v-525zM350 801h244q113 0 164 24.5t82 96.5q23 51 22 108q0 88 -48 149.5t-134 75.5q-43 9 -131 9h-199v-463z" />
<glyph unicode="C" horiz-adv-x="1097" d="M102 698q0 313 168 519t422 206q205 0 355 -114l-91 -109q-121 88 -266 88q-242 0 -346 -241q-59 -137 -59 -373q0 -186 45 -297q104 -258 377 -258q147 0 274 90l90 -117q-176 -115 -391 -115q-256 0 -417 201t-161 520z" />
<glyph unicode="D" horiz-adv-x="1280" d="M184 0v1393h281q174 0 254 -17q98 -23 196 -92q238 -170 238 -590q0 -342 -160 -520q-92 -102 -184 -138t-258 -36h-367zM352 139h150q111 0 172 11q135 23 203 135q94 156 94 389q0 311 -121 454q-66 78 -150 107q-63 20 -180 20h-168v-1116z" />
<glyph unicode="E" horiz-adv-x="1060" d="M188 0v1395h768l-22 -140h-576v-454h482v-146h-482v-510h619v-145h-789z" />
<glyph unicode="F" horiz-adv-x="952" d="M184 0v1399h740l-27 -139h-543v-455h451v-137h-451v-668h-170z" />
<glyph unicode="G" horiz-adv-x="1243" d="M111 694q0 397 217 590q151 133 366 133q223 0 385 -139l-75 -104q-159 108 -303 108h-3q-266 0 -350 -238q-55 -156 -55 -356q0 -283 98 -426q47 -68 142.5 -108.5t197.5 -40.5q135 0 223 55v428h-282l-33 139h473v-655q-164 -106 -395 -107q-270 0 -432 177 q-174 188 -174 544z" />
<glyph unicode="H" horiz-adv-x="1284" d="M178 0v1405h164v-588h592v588h168v-1405h-168v680h-592v-680h-164z" />
<glyph unicode="I" horiz-adv-x="548" d="M193 0v1405h163v-1405h-163z" />
<glyph unicode="J" horiz-adv-x="546" d="M-4 -158q121 49 168 138q35 63 35 256v1169h168v-1165q0 -80 -5 -150q-6 -98 -47 -172q-68 -123 -237 -180z" />
<glyph unicode="K" horiz-adv-x="1169" d="M170 0v1405h170v-1405h-170zM348 743l541 662h215l-565 -660l561 -745h-215z" />
<glyph unicode="L" horiz-adv-x="952" d="M184 0v1405h168v-1264h555l-22 -141h-701z" />
<glyph unicode="M" horiz-adv-x="1574" d="M135 0l123 1405h246l256 -918q35 -125 55 -245q29 147 51 229l264 934h248l121 -1405h-168l-82 1030q-6 84 -10 240q-20 -100 -55 -221l-301 -1049h-144l-278 997q-49 176 -70 275q-4 -94 -16 -273l-78 -999h-162z" />
<glyph unicode="N" horiz-adv-x="1280" d="M174 0v1401h195l467 -895q49 -92 131 -293q-8 121 -19 426l-6 762h166v-1401h-176l-451 858q-117 223 -159 336q16 -193 18 -381l8 -813h-174z" />
<glyph unicode="O" horiz-adv-x="1353" d="M117 709q0 334 149.5 527.5t409.5 193.5q289 0 442 -230q127 -188 127 -520q0 -385 -205 -571q-150 -135 -356 -136q-244 0 -399 179q-168 192 -168 557zM303 743q0 -336 90 -489q39 -66 125 -109t174 -43q168 0 262 121q102 131 103 432q0 304 -68 447q-92 192 -311 192 h-2q-98 0 -179 -44t-122 -120q-72 -135 -72 -387z" />
<glyph unicode="P" horiz-adv-x="1171" d="M190 0v1405h390q207 0 307 -66q180 -117 180 -335q0 -207 -131 -334q-115 -111 -336 -111h-246v-559h-164zM354 696h236q152 0 221.5 78t69.5 197q0 154 -82.5 223.5t-266.5 69.5h-178v-568z" />
<glyph unicode="Q" horiz-adv-x="1353" d="M113 709q0 336 148.5 528.5t408.5 192.5q295 0 442 -230q129 -201 129 -520q0 -383 -207 -571q-45 -41 -90 -68q43 -14 189 -96q102 -57 188 -58q59 0 84 11l-55 -134q-37 -18 -121 -18q-94 1 -268 107q-92 55 -130 71q-66 29 -167 49q-229 0 -383 179q-168 195 -168 557 zM297 743q0 -332 92 -489q39 -68 123 -110t176 -42q166 0 260 121q104 135 105 432q0 302 -70 447q-92 192 -311 192h-2q-96 0 -177 -44t-122 -120q-74 -139 -74 -387z" />
<glyph unicode="R" horiz-adv-x="1169" d="M186 0v1403h328q244 0 354 -90q139 -113 140 -295q0 -174 -102.5 -279.5t-270.5 -105.5h-21q63 -51 142 -158q25 -35 114 -164q49 -70 209 -311h-211q-41 90 -108 195q-139 211 -250 348q-41 49 -68 65q-33 23 -88 25v-633h-168zM356 737h150q178 0 251.5 71t73.5 212 q0 70 -38.5 130t-98.5 83q-74 29 -176 29h-162v-525z" />
<glyph unicode="S" horiz-adv-x="1134" d="M70 100l73 131q167 -120 374 -120h3q141 0 223 61q100 76 101 201q0 186 -252 262l-141 43q-184 55 -250 125q-88 92 -88 229q0 180 124.5 292t329.5 112q225 0 424 -136l-73 -120q-180 118 -340 118h-3q-131 0 -205.5 -61t-74.5 -170q0 -84 54 -137t179 -92l162 -52 q174 -55 248 -141q92 -106 92 -248q0 -209 -194 -338q-129 -86 -316 -86q-246 0 -450 127z" />
<glyph unicode="T" horiz-adv-x="1026" d="M47 1264v141h930l-10 -141h-381v-1264h-162v1264h-377z" />
<glyph unicode="U" horiz-adv-x="1247" d="M162 424v981h166v-899q0 -150 14 -215q37 -172 285 -172q182 0 247 88q53 72 54 239v959h166v-977q0 -133 -13 -186q-20 -94 -94 -158q-125 -109 -369 -109q-315 0 -415 203q-41 82 -41 246z" />
<glyph unicode="V" horiz-adv-x="1173" d="M31 1405h182l297 -901q63 -195 82 -314q25 106 86 293l301 922h172l-481 -1405h-166z" />
<glyph unicode="W" horiz-adv-x="1675" d="M49 1405h180l179 -821q23 -104 75 -428q31 188 80 407l187 842h190l182 -815q72 -319 84 -434q25 168 82 434l174 815h168l-321 -1405h-219l-175 780q-51 231 -73 400q-27 -178 -72 -387l-172 -793h-217z" />
<glyph unicode="X" horiz-adv-x="1099" d="M14 0l416 754l-373 651h199l281 -520l268 520h196l-352 -639l443 -766h-203l-348 645l-330 -645h-197z" />
<glyph unicode="Y" horiz-adv-x="1099" d="M12 1405h207l266 -537q47 -94 72 -157q23 53 76 157l270 537h193l-457 -858v-547h-174v557z" />
<glyph unicode="Z" horiz-adv-x="991" d="M51 0v129l600 987q55 92 90 135q-39 -2 -145 -2h-524l47 142h801v-144l-584 -971q-25 -41 -86 -135q49 2 121 2h557l-43 -143h-834z" />
<glyph unicode="[" horiz-adv-x="530" d="M57 -319v1818h338v-123h-190v-1573h190v-122h-338z" />
<glyph unicode="\" horiz-adv-x="757" d="M6 1487l129 49l617 -1573l-129 -51z" />
<glyph unicode="]" horiz-adv-x="530" d="M135 -197h191v1573h-191v123h338v-1818h-338v122z" />
<glyph unicode="^" horiz-adv-x="1363" d="M164 563l457 887h122l457 -887h-151l-367 715l-367 -715h-151z" />
<glyph unicode="_" d="M0 -154h1024v-102h-1024v102z" />
<glyph unicode="`" horiz-adv-x="692" d="M80 1362l88 158l424 -267l-53 -96z" />
<glyph unicode="a" d="M88 264q0 174 142.5 270.5t398.5 96.5q37 0 71 -2v71q0 123 -32 160q-49 55 -138 55q-88 0 -196 -45q-70 -28 -129 -75l-80 114q207 137 428 138q217 0 283 -160q22 -53 22 -164v-10v-51l-8 -336q-2 -14 -2 -47q0 -82 10 -119q18 -55 74 -84l-82 -115q-111 35 -139 150 q-137 -137 -295 -138q-158 0 -246 82q-82 76 -82 209zM266 279q0 -186 176 -187q170 0 248 160l6 266q-70 4 -80 4q-215 0 -292 -82q-57 -59 -58 -161z" />
<glyph unicode="b" horiz-adv-x="1134" d="M131 1464l174 35q27 -115 27 -254v-227q0 -88 -4 -113q139 137 293 137q182 0 288.5 -139t106.5 -379q0 -246 -111.5 -397.5t-294.5 -151.5q-78 0 -157.5 39t-122.5 97q-8 -66 -29 -111h-160q31 68 31 254v969q0 159 -41 241zM330 240q94 -123 252 -123q123 0 184 90 q72 106 72 328q0 190 -61.5 276t-190.5 86q-95 0 -185 -63q-41 -29 -71 -70v-524z" />
<glyph unicode="c" horiz-adv-x="878" d="M115 494q0 283 153 434q121 119 277 119q145 0 278 -111l-88 -111q-100 82 -194 82q-131 0 -193 -114q-57 -106 -57 -334q0 -354 252 -355q127 0 219 111l88 -102q-133 -135 -311 -136q-219 0 -326 154q-98 141 -98 363z" />
<glyph unicode="d" horiz-adv-x="1134" d="M123 502q0 328 211 473q93 65 193 65h3q178 0 277 -131q-2 90 -2 158v428l160 -27v-1138q0 -182 10 -248q6 -47 20 -82h-164q-14 41 -22 104q-41 -45 -70 -63q-80 -55 -200 -55q-199 0 -307.5 136t-108.5 380zM299 506q0 -233 80 -320q60 -65 163 -65h3q111 0 196 65 q39 31 62 74v541q-76 106 -248 106q-125 0 -190.5 -105.5t-65.5 -295.5z" />
<glyph unicode="e" d="M100 520q0 244 124 386.5t304 142.5q170 0 277 -113q66 -70 91.5 -160t25.5 -270v-23h-637v-24q0 -152 47 -223q82 -125 254 -125q145 0 250 96l61 -103q-139 -127 -344 -127q-211 0 -332 144.5t-121 398.5zM285 604h467q-2 158 -47 227q-58 91 -185 91q-223 0 -235 -318 z" />
<glyph unicode="f" horiz-adv-x="587" d="M106 891v121h99v168q0 164 112 250q70 53 181 53q135 -1 225 -60l-59 -112q-82 47 -152 47q-139 0 -139 -180v-166h282l-49 -121h-233v-891h-168v891h-99z" />
<glyph unicode="g" horiz-adv-x="1060" d="M106 -121q0 49 21 109l168 14l-8 -16q-20 -41 -21 -76q0 -166 266 -166q164 0 220 78q29 39 28 100q0 86 -56 124t-200 38q-20 0 -80.5 -2t-76.5 -2q-193 0 -193 147q0 113 172 170l12 4q-102 33 -165.5 114t-63.5 181q0 154 104.5 249t272.5 95q78 0 147 -22l70 -23 q39 -12 94 -12q74 0 141 45l99 -98q-86 -61 -172 -62q-37 0 -70 13q61 -76 62 -174q0 -158 -111 -252q-86 -74 -209 -74h-22l-23 -8q-162 -59 -162 -111q0 -49 82 -49h164q164 0 246 -57q113 -78 112 -215q0 -197 -155 -273q-102 -49 -250 -49q-266 0 -373 100 q-70 66 -70 160zM309 698q0 -198 195 -198h2q184 0 184 205q0 200 -186 200h-2q-193 0 -193 -207z" />
<glyph unicode="h" horiz-adv-x="1095" d="M135 1460l160 31q27 -98 27 -236v-237q0 -59 -7 -139q43 41 103 79q125 82 237 82q102 0 180 -54t93 -152q6 -35 6 -103v-731h-158v705q0 109 -39 150.5t-119 41.5q-158 0 -296 -172v-725h-160v1257q0 111 -27 203z" />
<glyph unicode="i" horiz-adv-x="509" d="M129 1333q0 53 37 90t88 37q53 0 89 -35.5t36 -89.5q0 -51 -36 -88t-89 -37q-51 0 -88 36t-37 87zM168 0v1016l170 26v-1042h-170z" />
<glyph unicode="j" horiz-adv-x="512" d="M23 -299q57 27 86 55q47 47 61 140q8 55 8 139v977l162 32v-1017q0 -88 -8 -158q-6 -51 -35 -105q-59 -113 -195 -170zM133 1333q0 53 37 90t88 37q53 0 89 -35.5t36 -89.5q0 -51 -36 -88t-89 -37q-51 0 -88 36t-37 87z" />
<glyph unicode="k" d="M133 1454l160 39q16 -49 20 -80q12 -90 13 -215v-1198h-160v1163q-1 124 -19 226q-2 16 -14 65zM332 578l389 442h201l-402 -442l494 -578h-213z" />
<glyph unicode="l" horiz-adv-x="509" d="M145 1456l166 33q25 -72 25 -315v-969q0 -51 6 -70q12 -33 51 -33q6 0 21 4l32 -104q-47 -22 -98 -22h-4q-74 0 -122 44t-48 144v1006q0 199 -29 282z" />
<glyph unicode="m" horiz-adv-x="1607" d="M135 1008l156 36q37 -74 37 -143v-8q53 55 125 98q92 55 172 56q129 0 202 -103q20 -29 35 -67q160 170 328 170q113 0 184.5 -78t71.5 -199v-770h-164v754q0 149 -129 149h-2q-74 0 -150 -55q-33 -25 -102 -86l-18 -17v-745h-162v725q0 98 -29 131q-37 41 -104 41 q-111 0 -260 -135v-762h-154v760q0 154 -37 248z" />
<glyph unicode="n" horiz-adv-x="1097" d="M137 1001l156 43q37 -80 37 -159q157 157 319 157h2q82 0 150.5 -40.5t99.5 -108.5q25 -55 25 -119v-774h-162v690q0 129 -38 171t-112 42q-61 0 -144 -42t-138 -101v-760h-156v760q0 104 -6 143t-33 98z" />
<glyph unicode="o" horiz-adv-x="1124" d="M123 508q0 248 116.5 391t317.5 143q227 0 350 -178q94 -137 94 -379q0 -283 -159 -422q-113 -98 -279 -98q-205 0 -322.5 145.5t-117.5 397.5zM297 535q0 -229 62.5 -333t207.5 -104q166 0 221 154q31 86 31 221q0 209 -47 307q-63 131 -217 131q-150 0 -209 -110 q-49 -90 -49 -266z" />
<glyph unicode="p" horiz-adv-x="1134" d="M147 1018l166 29q10 -51 11 -129v-27q126 149 299 149h2q168 0 272 -127q113 -137 113 -401q0 -219 -82 -352q-115 -186 -316 -187q-166 0 -280 119v-487l-160 -31v1198q0 172 -25 246zM332 240q117 -133 250 -134q156 0 215 127q43 92 43 259q0 197 -47 292 q-55 113 -189 113q-153 0 -272 -143v-514z" />
<glyph unicode="q" horiz-adv-x="1134" d="M125 479q0 162 22 252q20 84 74 156q119 164 305 164q160 -1 289 -144q6 78 23 115h157q-32 -53 -32 -268v-13v-1124l-154 -33v531q-115 -133 -287 -133q-135 0 -233 81q-164 137 -164 416zM295 516q0 -248 96 -338q63 -59 170 -59h2q163 0 246 157v486 q-41 66 -113.5 105.5t-146.5 39.5q-143 0 -207 -125q-47 -92 -47 -266z" />
<glyph unicode="r" horiz-adv-x="657" d="M141 1004l160 43q35 -76 35 -152v-14q121 170 287 170q25 0 55 -11l-66 -174q-27 8 -45 8q-61 0 -121.5 -35.5t-89.5 -88.5q-18 -37 -18 -111v-639h-160v778q0 141 -37 226z" />
<glyph unicode="s" horiz-adv-x="913" d="M59 74l62 119q158 -96 323 -97q94 0 150.5 47t56.5 129q0 133 -168 168l-127 27q-125 27 -191.5 101.5t-66.5 179.5q0 137 101.5 225t261.5 88q168 0 311 -82l-59 -119q-154 74 -256 74q-88 0 -140.5 -46t-52.5 -122q0 -55 30 -92t118 -56l135 -28q272 -57 272 -285 q0 -150 -106.5 -242t-278.5 -92q-207 0 -375 103z" />
<glyph unicode="t" horiz-adv-x="659" d="M55 897v125h133v12q0 27 15 213l2 27l166 37q-21 -164 -21 -289h258l-49 -125h-215v-655q0 -86 28.5 -119t102.5 -33q61 0 103 21l22 -103q-78 -41 -180 -41q-231 0 -232 232v698h-133z" />
<glyph unicode="u" horiz-adv-x="1097" d="M174 262v750l158 30v-733q0 -129 58.5 -168t127.5 -39q76 0 147.5 51.5t112.5 133.5v723l158 26v-723q0 -141 25 -190q14 -29 45 -57l-103 -109q-92 76 -110 164q-117 -156 -324 -156q-295 0 -295 297z" />
<glyph unicode="v" horiz-adv-x="987" d="M41 1012l164 35l237 -703q29 -86 50 -174h4q14 74 49 172l231 674l170 2l-381 -1028h-157z" />
<glyph unicode="w" horiz-adv-x="1427" d="M45 1012l160 35l164 -674q20 -88 37 -170h6q8 37 34 147l185 676h170l180 -684q37 -143 41 -149h4q10 53 31 141l162 684h167l-288 -1026h-152l-237 829h-4q-6 -35 -23 -104l-205 -725h-149z" />
<glyph unicode="x" horiz-adv-x="915" d="M-6 0l381 565l-314 451h197l201 -336l194 336h187l-301 -451l391 -565h-195l-276 434l-277 -434h-188z" />
<glyph unicode="y" horiz-adv-x="948" d="M33 997l157 54l209 -662q29 -90 62 -254h4l63 215l201 668h182l-350 -1055q-70 -207 -162 -295q-70 -66 -168 -88l-47 109q80 14 144 92q53 63 92 221l-66 -10q-28 149 -102 366z" />
<glyph unicode="z" horiz-adv-x="878" d="M63 0v123l555 768h-512v127h680v-131l-530 -764h563l-76 -123h-680z" />
<glyph unicode="{" horiz-adv-x="681" d="M68 528v123q68 0 122 65.5t54 166.5v360q0 117 71 191q63 66 144 65h143v-123h-110q-100 0 -101 -162v-360q0 -121 -69 -195q-49 -53 -107 -67v-4q57 -8 107 -58q70 -74 69 -206v-359q0 -162 101 -162h110v-122h-143q-84 0 -146 65q-70 74 -69 191v358q0 104 -56 172 q-51 61 -120 61z" />
<glyph unicode="|" horiz-adv-x="454" d="M160 -37v1585h135v-1585h-135z" />
<glyph unicode="}" horiz-adv-x="681" d="M80 -197h110q100 0 101 162v359q0 133 69 206q49 49 107 58v4q-57 14 -107 67q-70 74 -69 195v360q0 162 -101 162h-110v123h143q80 0 144 -65q72 -74 71 -191v-360q0 -100 54.5 -166t121.5 -66v-123q-70 0 -120 -61q-55 -68 -56 -172v-358q0 -117 -69 -191 q-61 -66 -146 -65h-143v122z" />
<glyph unicode="~" horiz-adv-x="1363" d="M211 578q63 88 104 122q68 57 152 58q72 0 209 -62q57 -27 117.5 -52.5t117.5 -25.5q104 1 174 144l68 -98q-66 -90 -104 -123q-70 -57 -154 -58q-72 0 -209 62q-57 27 -115 51q-63 27 -120 27q-106 0 -172 -144z" />
<glyph unicode="&#xa3;" horiz-adv-x="1138" d="M117 0v160h221v516h-197v135h197v164q0 254 127 383q113 117 311 117q203 0 330 -127l-113 -121q-104 100 -221 100q-262 0 -262 -356v-160h332v-135h-332v-516h504v-160h-897z" />
<glyph unicode="&#xa5;" horiz-adv-x="509" d="M-4 1229v110h520v-110h-520zM168 0v1016l170 26v-1042h-170z" />
<glyph unicode="&#xa7;" horiz-adv-x="1138" d="M115 -43l157 74q53 -178 258 -178q94 0 154 45q68 49 68 143q0 76 -72 129q-20 16 -133 76l-250 131q-150 78 -150 250q0 186 207 286q-158 90 -157 242q0 156 122 248q111 84 271 84q117 0 209 -45q104 -52 149 -148l-153 -84q-47 129 -211 129q-88 0 -148 -41 q-68 -49 -67 -135q0 -102 90 -147l200 -101q150 -74 209 -127q102 -90 103 -210q0 -174 -176 -273q141 -92 141 -252q0 -166 -131 -262q-117 -86 -287 -86q-305 0 -403 252zM307 653q0 -70 58 -121q32 -28 118 -69l183 -88q53 23 93 73t40 105q0 117 -199 217l-119 59 q-84 -35 -116 -61q-57 -45 -58 -115z" />
<glyph unicode="&#xa8;" d="M186 1272q0 43 31 73.5t74 30.5q45 0 75.5 -30.5t30.5 -73.5q0 -45 -29.5 -77t-74.5 -32t-76 32t-31 77zM608 1272q0 43 31 73.5t76 30.5q43 0 74.5 -30.5t31.5 -73.5q0 -45 -30.5 -77t-73.5 -32q-45 0 -77 32t-32 77z" />
<glyph unicode="&#xa9;" horiz-adv-x="1638" d="M57 725q0 322 226 545q221 217 536 217q313 0 537 -217q225 -223 225 -545t-224 -542t-538 -220q-315 0 -538.5 220t-223.5 542zM193 725q0 -276 181 -463.5t445 -187.5q262 0 444.5 188.5t182.5 462.5t-182.5 462.5t-444.5 188.5q-264 0 -445 -187.5t-181 -463.5z M395 725q0 207 121 336t328 129q150 0 252 -78q109 -84 131 -231h-125q-16 86 -87 142t-169 56q-147 0 -231.5 -99t-84.5 -255q0 -147 86 -248q92 -109 234 -108q100 0 169 59.5t83 149.5h127q-33 -147 -135.5 -233.5t-243.5 -86.5q-205 0 -330 132t-125 335z" />
<glyph unicode="&#xab;" d="M119 492l293 438l112 -74l-239 -364l239 -365l-112 -74zM500 492l293 438l112 -74l-239 -364l239 -365l-112 -74z" />
<glyph unicode="&#xad;" horiz-adv-x="618" d="M117 469v156h391v-156h-391z" />
<glyph unicode="&#xae;" horiz-adv-x="1638" d="M57 725q0 322 226 545q221 217 536 217q313 0 537 -217q225 -223 225 -545t-224 -542t-538 -220q-315 0 -538.5 220t-223.5 542zM193 725q0 -276 181 -463.5t445 -187.5q262 0 444.5 188.5t182.5 462.5t-182.5 462.5t-444.5 188.5q-264 0 -445 -187.5t-181 -463.5z M528 281v890h336q311 0 312 -253q0 -219 -236 -244l256 -393h-145l-242 383h-145v-383h-136zM664 774h139q117 0 164 21q74 33 73 129q0 137 -198 137h-178v-287z" />
<glyph unicode="&#xaf;" horiz-adv-x="1099" d="M12 1405h207l266 -537q47 -94 72 -157q23 53 76 157l270 537h193l-457 -858v-547h-174v557zM457 1575l360 227l74 -135l-389 -174z" />
<glyph unicode="&#xb0;" horiz-adv-x="798" d="M70 1067q0 164 87 256t240 92q172 0 262 -117q70 -90 70 -243q0 -186 -121 -277q-86 -63 -209 -63q-154 0 -241.5 94t-87.5 258zM209 1083q0 -137 45 -196.5t152 -59.5q121 0 161 91q25 55 25 129q0 127 -39 186q-47 70 -158 70q-104 0 -149 -64q-37 -51 -37 -156z" />
<glyph unicode="&#xb1;" horiz-adv-x="548" d="M18 1540v111h521v-111h-521zM193 0v1405h163v-1405h-163z" />
<glyph unicode="&#xb4;" horiz-adv-x="569" d="M211 958v492h147v-492h-147z" />
<glyph unicode="&#xb6;" horiz-adv-x="1228" d="M170 1028q0 199 125 310.5t342 111.5h498v-1708h-148v1573h-242v-1573h-147v905q-186 0 -307 109.5t-121 271.5z" />
<glyph unicode="&#xb7;" horiz-adv-x="1134" d="M70 100l73 131q168 -121 377 -120q141 0 223 61q100 76 101 201q0 186 -252 262l-141 43q-184 55 -250 125q-88 92 -88 229q0 180 124.5 292t329.5 112q225 0 424 -136l-73 -120q-182 119 -343 118q-131 0 -205.5 -61t-74.5 -170q0 -84 54 -137t179 -92l162 -52 q174 -55 248 -141q92 -106 92 -248q0 -209 -194 -338q-129 -86 -316 -86q-246 0 -450 127zM264 1729l62 75l243 -147l234 147l55 -75l-297 -236z" />
<glyph unicode="&#xb8;" horiz-adv-x="952" d="M111 502v151l73 74v678h168v-508l74 74v-152l-74 -74v-604h555l-22 -141h-701v575z" />
<glyph unicode="&#xbb;" d="M119 127l239 365l-239 364l112 74l293 -438l-293 -439zM500 127l239 365l-239 364l112 74l293 -438l-293 -439z" />
<glyph unicode="&#xbf;" horiz-adv-x="1097" d="M137 1001l156 43q37 -80 37 -159q158 158 321 157q82 0 150.5 -40.5t99.5 -108.5q25 -55 25 -119v-774h-162v690q0 129 -38 171t-112 42q-61 0 -144 -42t-138 -101v-760h-156v760q0 104 -6 143t-33 98zM756 -330q70 31 80 103q-6 -2 -15 -2q-27 0 -45 22.5t-18 52.5 q0 35 24.5 61.5t57.5 26.5q41 0 67.5 -32.5t26.5 -81.5q0 -63 -45 -121q-28 -37 -94 -78l-9 -4z" />
<glyph unicode="&#xc1;" horiz-adv-x="1169" d="M8 0l469 1405h219l465 -1405h-190l-133 432h-525l-135 -432h-170zM360 569h435l-215 688l-70 -206q-8 -27 -150 -482zM446 1575l361 227l74 -135l-389 -174z" />
<glyph unicode="&#xc4;" horiz-adv-x="1169" d="M8 0l469 1405h219l465 -1405h-190l-133 432h-525l-135 -432h-170zM272 1620q0 43 31 73.5t74 30.5q45 0 75.5 -30.5t30.5 -73.5q0 -45 -29.5 -77t-74.5 -32t-76 32t-31 77zM360 569h435l-215 688l-70 -206q-8 -27 -150 -482zM694 1620q0 43 31 73.5t76 30.5 q43 0 74.5 -30.5t31.5 -73.5q0 -45 -30.5 -77t-73.5 -32q-45 0 -77 32t-32 77z" />
<glyph unicode="&#xc5;" horiz-adv-x="1169" d="M8 0l469 1405h219l465 -1405h-190l-133 432h-525l-135 -432h-170zM334 1540v111h520v-111h-520zM360 569h435l-215 688l-70 -206q-8 -27 -150 -482z" />
<glyph unicode="&#xc6;" horiz-adv-x="1060" d="M106 -121q0 49 21 109l168 14l-8 -16q-20 -41 -21 -76q0 -166 266 -166q164 0 220 78q29 39 28 100q0 86 -56 124t-200 38q-20 0 -80.5 -2t-76.5 -2q-193 0 -193 147q0 113 172 170l12 4q-102 33 -165.5 114t-63.5 181q0 154 104.5 249t272.5 95q78 0 147 -22l70 -23 q39 -12 94 -12q74 0 141 45l99 -98q-86 -61 -172 -62q-37 0 -70 13q61 -76 62 -174q0 -158 -111 -252q-86 -74 -209 -74h-22l-23 -8q-162 -59 -162 -111q0 -49 82 -49h164q164 0 246 -57q113 -78 112 -215q0 -197 -155 -273q-102 -49 -250 -49q-266 0 -373 100 q-70 66 -70 160zM309 698q0 -199 197 -198q184 0 184 205q0 201 -188 200q-193 0 -193 -207zM420 1221q0 63 45 120q28 37 94 78l8 4l31 -53q-70 -31 -80 -102q6 2 14 2q27 0 45.5 -22.5t18.5 -53.5q0 -35 -24.5 -61.5t-57.5 -26.5q-41 0 -67.5 32.5t-26.5 82.5z" />
<glyph unicode="&#xc7;" d="M88 264q0 174 142.5 270.5t398.5 96.5q37 0 71 -2v71q0 123 -32 160q-49 55 -138 55q-88 0 -196 -45q-70 -28 -129 -75l-80 114q207 137 428 138q217 0 283 -160q23 -55 22 -174v-51l-8 -336q-2 -14 -2 -47q0 -82 10 -119q18 -55 74 -84l-82 -115q-111 35 -139 150 q-137 -137 -295 -138q-158 0 -246 82q-82 76 -82 209zM256 1229v110h520v-110h-520zM266 279q0 -186 176 -187q170 0 248 160l6 266q-70 4 -80 4q-215 0 -292 -82q-57 -59 -58 -161z" />
<glyph unicode="&#xc9;" horiz-adv-x="1060" d="M188 0v1395h768l-22 -140h-576v-454h482v-146h-482v-510h619v-145h-789zM395 1575l361 227l73 -135l-389 -174z" />
<glyph unicode="&#xcb;" horiz-adv-x="1060" d="M188 0v1395h768l-22 -140h-576v-454h482v-146h-482v-510h619v-145h-789zM311 1540v111h520v-111h-520z" />
<glyph unicode="&#xcc;" horiz-adv-x="1247" d="M162 424v981h166v-899q0 -150 14 -215q37 -172 285 -172q182 0 247 88q53 72 54 239v959h166v-977q0 -133 -13 -186q-20 -94 -94 -158q-125 -109 -369 -109q-315 0 -415 203q-41 82 -41 246zM367 1540v111h520v-111h-520z" />
<glyph unicode="&#xcd;" horiz-adv-x="548" d="M164 1575l360 227l74 -135l-389 -174zM193 0v1405h163v-1405h-163z" />
<glyph unicode="&#xd1;" horiz-adv-x="1169" d="M8 0l469 1405h219l465 -1405h-55q-82 -76 -82 -150q0 -63 63 -63q53 0 107 25l37 -82q-78 -41 -144 -41q-80 0 -124.5 44t-44.5 107q0 80 55 160h-2l-133 432h-525l-135 -432h-170zM360 569h435l-215 688l-70 -206q-8 -27 -150 -482z" />
<glyph unicode="&#xd3;" horiz-adv-x="1353" d="M117 709q0 334 149.5 527.5t409.5 193.5q289 0 442 -230q127 -188 127 -520q0 -385 -205 -571q-150 -135 -356 -136q-244 0 -399 179q-168 192 -168 557zM303 743q0 -336 90 -489q39 -66 125 -109t174 -43q168 0 262 121q102 131 103 432q0 304 -68 447q-92 193 -313 192 q-98 0 -179 -44t-122 -120q-72 -135 -72 -387zM528 1575l361 227l74 -135l-390 -174z" />
<glyph unicode="&#xd4;" horiz-adv-x="1353" d="M117 709q0 334 149.5 527.5t409.5 193.5q289 0 442 -230q127 -188 127 -520q0 -385 -205 -571q-150 -135 -356 -136q-244 0 -399 179q-168 192 -168 557zM303 743q0 -336 90 -489q39 -66 125 -109t174 -43q168 0 262 121q102 131 103 432q0 304 -68 447q-92 193 -313 192 q-98 0 -179 -44t-122 -120q-72 -135 -72 -387zM401 1569l297 235l297 -235l-63 -76l-242 147l-233 -147z" />
<glyph unicode="&#xd5;" horiz-adv-x="1353" d="M117 709q0 334 149.5 527.5t409.5 193.5q289 0 442 -230q127 -188 127 -520q0 -385 -205 -571q-150 -135 -356 -136q-244 0 -399 179q-168 192 -168 557zM303 743q0 -336 90 -489q39 -66 125 -109t174 -43q168 0 262 121q102 131 103 432q0 304 -68 447q-92 193 -313 192 q-98 0 -179 -44t-122 -120q-72 -135 -72 -387zM373 1630q55 70 102 96q57 33 143 33q63 0 132 -38t129 -38q67 0 143 80l57 -92q-104 -129 -248 -129q-63 0 -131.5 38t-128.5 38q-66 0 -141 -80z" />
<glyph unicode="&#xd6;" horiz-adv-x="1353" d="M117 709q0 334 149.5 527.5t409.5 193.5q289 0 442 -230q127 -188 127 -520q0 -385 -205 -571q-150 -135 -356 -136q-244 0 -399 179q-168 192 -168 557zM303 743q0 -336 90 -489q39 -66 125 -109t174 -43q168 0 262 121q102 131 103 432q0 304 -68 447q-92 193 -313 192 q-98 0 -179 -44t-122 -120q-72 -135 -72 -387zM373 1620q0 43 30.5 73.5t73.5 30.5q45 0 76 -30.5t31 -73.5q0 -45 -30 -77t-75 -32t-75.5 32t-30.5 77zM795 1620q0 43 30.5 73.5t75.5 30.5q43 0 75 -30.5t32 -73.5q0 -45 -31 -77t-74 -32q-45 0 -76.5 32t-31.5 77z" />
<glyph unicode="&#xd8;" horiz-adv-x="548" d="M139 -160q1 80 56 160h-2v1405h163v-1405h-28q-82 -76 -82 -150q0 -63 63 -63q53 0 107 25l37 -82q-78 -41 -144 -41q-80 0 -125 44t-45 107z" />
<glyph unicode="&#xda;" horiz-adv-x="1247" d="M162 424v981h166v-899q0 -150 14 -215q37 -172 285 -172q182 0 247 88q53 72 54 239v959h166v-977q0 -133 -13 -186q-20 -94 -94 -158q-125 -109 -369 -109q-315 0 -415 203q-41 82 -41 246zM508 1575l360 227l74 -135l-389 -174z" />
<glyph unicode="&#xdc;" horiz-adv-x="1247" d="M162 424v981h166v-899q0 -150 14 -215q37 -172 285 -172q182 0 247 88q53 72 54 239v959h166v-977q0 -133 -13 -186q-20 -94 -94 -158q-125 -109 -369 -109q-315 0 -415 203q-41 82 -41 246zM317 1620q0 43 31 73.5t74 30.5q45 0 75.5 -30.5t30.5 -73.5q0 -45 -29.5 -77 t-74.5 -32t-76 32t-31 77zM739 1620q0 43 31 73.5t76 30.5q43 0 74.5 -30.5t31.5 -73.5q0 -45 -30.5 -77t-73.5 -32q-45 0 -77 32t-32 77z" />
<glyph unicode="&#xdd;" horiz-adv-x="1099" d="M12 1405h207l266 -537q47 -94 72 -157q23 53 76 157l270 537h193l-457 -858v-547h-174v557zM457 1575l360 227l74 -135l-389 -174z" />
<glyph unicode="&#xdf;" horiz-adv-x="1171" d="M29 897v121l149 -8v45q0 168 84 266q106 125 301 125q158 0 262.5 -89t104.5 -224q0 -125 -101 -199q-61 -45 -178 -84q-35 -12 -35 -33q0 -16 37 -39q88 -41 256 -131q145 -86 146 -291q0 -197 -156 -311q-94 -70 -229 -70q-129 0 -203 37l47 107q76 -27 133 -27 q102 0 170 73t68 179q0 135 -88 199q-31 23 -140 80q-131 70 -165 118q-16 23 -17 62q0 41 23 71q31 43 104 80q86 41 109 62q49 45 49 129q0 82 -57.5 132t-151.5 50q-115 0 -170 -84q-45 -70 -45 -199v-26l10 -811q2 -125 -24 -207h-154q20 80 18 240l-6 659z" />
<glyph unicode="&#xe0;" d="M88 264q0 174 142.5 270.5t398.5 96.5q37 0 71 -2v71q0 123 -32 160q-49 55 -138 55q-88 0 -196 -45q-70 -29 -129 -75l-80 114q207 137 428 138q217 0 283 -160q23 -55 22 -174v-51l-8 -336q-2 -14 -2 -47q0 -82 10 -119q18 -55 74 -84l-70 -96q-4 -6 -12 -19l-2 2 q-47 -59 -47 -113q0 -63 63 -63q53 0 107 25l37 -82q-78 -41 -144 -41q-80 0 -125 44t-45 107q0 92 68 176q-35 35 -51 95q-137 -137 -295 -138q-158 0 -246 82q-82 76 -82 209zM266 279q0 -186 176 -187q170 0 248 160l6 266q-70 4 -80 4q-215 0 -292 -82q-57 -59 -58 -161 z" />
<glyph unicode="&#xe1;" d="M88 264q0 174 142.5 270.5t398.5 96.5q37 0 71 -2v71q0 123 -32 160q-49 55 -138 55q-88 0 -196 -45q-70 -28 -129 -75l-80 114q207 137 428 138q217 0 283 -160q23 -55 22 -174v-51l-8 -336q-2 -14 -2 -47q0 -82 10 -119q18 -55 74 -84l-82 -115q-111 35 -139 150 q-137 -137 -295 -138q-158 0 -246 82q-82 76 -82 209zM266 279q0 -186 176 -187q170 0 248 160l6 266q-70 4 -80 4q-215 0 -292 -82q-57 -59 -58 -161zM346 1241l361 227l73 -135l-389 -174z" />
<glyph unicode="&#xe4;" d="M88 264q0 174 142.5 270.5t398.5 96.5q37 0 71 -2v71q0 123 -32 160q-49 55 -138 55q-88 0 -196 -45q-70 -28 -129 -75l-80 114q207 137 428 138q217 0 283 -160q23 -55 22 -174v-51l-8 -336q-2 -14 -2 -47q0 -82 10 -119q18 -55 74 -84l-82 -115q-111 35 -139 150 q-137 -137 -295 -138q-158 0 -246 82q-82 76 -82 209zM199 1292q0 43 30.5 74t73.5 31q45 0 76 -31t31 -74q0 -45 -30 -76.5t-75 -31.5t-75.5 31.5t-30.5 76.5zM266 279q0 -186 176 -187q170 0 248 160l6 266q-70 4 -80 4q-215 0 -292 -82q-57 -59 -58 -161zM621 1292 q0 43 30.5 74t75.5 31q43 0 75 -31t32 -74q0 -45 -31 -76.5t-74 -31.5q-45 0 -76.5 31.5t-31.5 76.5z" />
<glyph unicode="&#xe7;" horiz-adv-x="878" d="M115 494q0 283 153 434q121 119 277 119q145 0 278 -111l-88 -111q-100 82 -194 82q-131 0 -193 -114q-57 -106 -57 -334q0 -354 252 -355q127 0 219 111l88 -102q-133 -135 -311 -136q-219 0 -326 154q-98 141 -98 363zM342 1241l360 227l74 -135l-389 -174z" />
<glyph unicode="&#xe9;" d="M100 520q0 244 124 386.5t304 142.5q170 0 277 -113q66 -70 91.5 -160t25.5 -270v-23h-637v-24q0 -152 47 -223q82 -125 254 -125q145 0 250 96l61 -103q-139 -127 -344 -127q-211 0 -332 144.5t-121 398.5zM285 604h467q-2 158 -47 227q-58 91 -185 91q-223 0 -235 -318 zM365 1241l360 227l74 -135l-389 -174z" />
<glyph unicode="&#xeb;" d="M100 520q0 244 124 386.5t304 142.5q170 0 277 -113q66 -70 91.5 -160t25.5 -270v-23h-637v-24q0 -152 47 -223q82 -125 254 -125q145 0 250 96l61 -103q-139 -127 -344 -127q-211 0 -332 144.5t-121 398.5zM274 1229v110h521v-110h-521zM285 604h467q-2 158 -47 227 q-58 91 -185 91q-223 0 -235 -318z" />
<glyph unicode="&#xed;" horiz-adv-x="509" d="M133 1241l361 227l73 -135l-389 -174zM166 0v1016l172 26v-1042h-172z" />
<glyph unicode="&#xf1;" horiz-adv-x="1060" d="M188 0v1395h768l-22 -140h-576v-454h482v-146h-482v-510h619v-145h-789zM477 1620q0 43 31 73.5t74 30.5q45 0 75.5 -30.5t30.5 -73.5q0 -45 -29.5 -77t-74.5 -32t-76 32t-31 77z" />
<glyph unicode="&#xf2;" d="M100 520q0 244 124 386.5t304 142.5q170 0 277 -113q66 -70 91.5 -160t25.5 -270v-23h-637v-24q0 -152 47 -223q82 -125 254 -125q145 0 250 96l61 -103q-139 -127 -344 -127q-211 0 -332 144.5t-121 398.5zM285 604h467q-2 158 -47 227q-58 91 -185 91q-223 0 -235 -318 zM430 1292q0 43 31 74t74 31q45 0 75.5 -31t30.5 -74q0 -45 -29.5 -76.5t-74.5 -31.5t-76 31.5t-31 76.5z" />
<glyph unicode="&#xf3;" horiz-adv-x="1124" d="M123 508q0 248 116.5 391t317.5 143q227 0 350 -178q94 -137 94 -379q0 -283 -159 -422q-113 -98 -279 -98q-205 0 -322.5 145.5t-117.5 397.5zM297 535q0 -229 62.5 -333t207.5 -104q166 0 221 154q31 86 31 221q0 209 -47 307q-63 131 -217 131q-150 0 -209 -110 q-49 -90 -49 -266zM393 1241l361 227l73 -135l-389 -174z" />
<glyph unicode="&#xf4;" horiz-adv-x="1124" d="M123 508q0 248 116.5 391t317.5 143q227 0 350 -178q94 -137 94 -379q0 -283 -159 -422q-113 -98 -279 -98q-205 0 -322.5 145.5t-117.5 397.5zM268 1233l297 235l297 -235l-63 -76l-242 148l-233 -148zM297 535q0 -229 62.5 -333t207.5 -104q166 0 221 154q31 86 31 221 q0 209 -47 307q-63 131 -217 131q-150 0 -209 -110q-49 -90 -49 -266z" />
<glyph unicode="&#xf5;" horiz-adv-x="1124" d="M123 508q0 248 116.5 391t317.5 143q227 0 350 -178q94 -137 94 -379q0 -283 -159 -422q-113 -98 -279 -98q-205 0 -322.5 145.5t-117.5 397.5zM195 1303q55 70 102 96q57 33 143 33q63 0 132 -38t128 -38q68 0 144 80l57 -93q-104 -129 -248 -129q-63 0 -131.5 38 t-128.5 38q-66 0 -141 -80zM297 535q0 -229 62.5 -333t207.5 -104q166 0 221 154q31 86 31 221q0 209 -47 307q-63 131 -217 131q-150 0 -209 -110q-49 -90 -49 -266z" />
<glyph unicode="&#xf6;" horiz-adv-x="1124" d="M123 508q0 248 116.5 391t317.5 143q227 0 350 -178q94 -137 94 -379q0 -283 -159 -422q-113 -98 -279 -98q-205 0 -322.5 145.5t-117.5 397.5zM252 1292q0 43 30.5 74t73.5 31q45 0 76 -31t31 -74q0 -45 -30 -76.5t-75 -31.5t-75.5 31.5t-30.5 76.5zM297 535 q0 -229 62.5 -333t207.5 -104q166 0 221 154q31 86 31 221q0 209 -47 307q-63 131 -217 131q-150 0 -209 -110q-49 -90 -49 -266zM674 1292q0 43 30.5 74t75.5 31q43 0 75 -31t32 -74q0 -45 -31 -76.5t-74 -31.5q-45 0 -76.5 31.5t-31.5 76.5z" />
<glyph unicode="&#xf7;" horiz-adv-x="1744" d="M123 891v121h98v168q0 164 113 250q70 53 180 53q135 0 225 -60l-59 -112q-82 47 -152 47q-139 0 -139 -180v-166h404v168q0 164 112 250q70 53 180 53q135 0 226 -60l-60 -112q-82 47 -151 47q-139 0 -139 -180v-166h602v-1012h-170v891h-432v-891h-168v891h-404v-891 h-168v891h-98zM1354 1333q0 53 36.5 90t88.5 37q53 0 89 -35.5t36 -89.5q0 -51 -36 -88t-89 -37q-51 0 -88 36t-37 87z" />
<glyph unicode="&#xf8;" horiz-adv-x="1280" d="M174 0v1401h195l467 -895q49 -92 131 -293q-8 121 -19 426l-6 762h166v-1401h-176l-451 858q-117 223 -159 336q16 -193 18 -381l8 -813h-174zM535 -330q70 31 79 103q-6 -2 -14 -2q-27 0 -45 22.5t-18 52.5q0 35 24.5 61.5t56.5 26.5q41 0 68 -32.5t27 -81.5 q0 -63 -45 -121q-29 -37 -95 -78l-8 -4z" />
<glyph unicode="&#xfa;" horiz-adv-x="1097" d="M174 262v750l158 30v-733q0 -129 58.5 -168t127.5 -39q76 0 147.5 51.5t112.5 133.5v723l158 26v-723q0 -141 25 -190q14 -29 45 -57l-103 -109q-92 76 -110 164q-117 -156 -324 -156q-295 0 -295 297zM420 1241l360 227l74 -135l-389 -174z" />
<glyph unicode="&#xfc;" horiz-adv-x="1097" d="M174 262v750l158 30v-733q0 -129 58.5 -168t127.5 -39q76 0 147.5 51.5t112.5 133.5v723l158 26v-723q0 -141 25 -190q14 -29 45 -57l-103 -109q-92 76 -110 164q-117 -156 -324 -156q-295 0 -295 297zM250 1292q0 43 30.5 74t73.5 31q45 0 76 -31t31 -74 q0 -45 -30 -76.5t-75 -31.5t-75.5 31.5t-30.5 76.5zM672 1292q0 43 30.5 74t75.5 31q43 0 75 -31t32 -74q0 -45 -31 -76.5t-74 -31.5q-45 0 -76.5 31.5t-31.5 76.5z" />
<glyph unicode="&#xfd;" horiz-adv-x="948" d="M33 997l157 54l209 -662q29 -90 62 -254h4l63 215l201 668h182l-350 -1055q-70 -207 -162 -295q-70 -66 -168 -88l-47 109q80 14 144 92q53 63 92 221l-66 -10q-28 149 -102 366zM373 1241l360 227l74 -135l-389 -174z" />
<glyph unicode="&#xff;" horiz-adv-x="1124" d="M123 508q0 248 116.5 391t317.5 143q227 0 350 -178q94 -137 94 -379q0 -283 -159 -422q-113 -98 -279 -98q-205 0 -322.5 145.5t-117.5 397.5zM297 535q0 -229 62.5 -333t207.5 -104q166 0 221 154q31 86 31 221q0 209 -47 307q-63 131 -217 131q-150 0 -209 -110 q-49 -90 -49 -266zM309 1229v110h520v-110h-520z" />
<glyph unicode="&#x10c;" horiz-adv-x="1097" d="M102 698q0 313 168 519t422 206q205 0 355 -114l-91 -109q-121 88 -266 88q-242 0 -346 -241q-59 -137 -59 -373q0 -186 45 -297q104 -258 377 -258q147 0 274 90l90 -117q-176 -115 -391 -115q-256 0 -417 201t-161 520zM360 1729l62 75l244 -147l233 147l55 -75 l-297 -236z" />
<glyph unicode="&#x10d;" horiz-adv-x="878" d="M115 494q0 283 153 434q121 119 277 119q145 0 278 -111l-88 -111q-100 82 -194 82q-131 0 -193 -114q-57 -106 -57 -334q0 -354 252 -355q127 0 219 111l88 -102q-133 -135 -311 -136q-219 0 -326 154q-98 141 -98 363zM209 1395l61 75l244 -147l234 147l55 -75 l-297 -236z" />
<glyph unicode="&#x10e;" horiz-adv-x="1280" d="M184 0v1393h281q174 0 254 -17q98 -23 196 -92q238 -170 238 -590q0 -342 -160 -520q-92 -102 -184 -138t-258 -36h-367zM270 1729l62 75l243 -147l234 147l55 -75l-297 -236zM352 139h150q111 0 172 11q135 23 203 135q94 156 94 389q0 311 -121 454q-66 78 -150 107 q-63 20 -180 20h-168v-1116z" />
<glyph unicode="&#x10f;" horiz-adv-x="1177" d="M123 502q0 328 211 473q94 66 196 65q178 0 277 -131q-2 90 -2 158v428l160 -27v-1138q0 -182 10 -248q6 -47 20 -82h-164q-14 41 -22 104q-41 -45 -70 -63q-80 -55 -200 -55q-199 0 -307.5 136t-108.5 380zM299 506q0 -233 80 -320q61 -66 166 -65q111 0 196 65 q39 31 62 74v541q-76 106 -248 106q-125 0 -190.5 -105.5t-65.5 -295.5zM1038 1192q88 41 99 129q-6 -2 -17 -2q-33 0 -56.5 27.5t-23.5 66.5q0 45 30 77t73 32q51 0 84 -40t33 -104q0 -80 -56 -149q-29 -37 -45 -51q-29 -25 -74 -48l-8 -4z" />
<glyph unicode="&#x11a;" horiz-adv-x="1060" d="M188 0v1395h768l-22 -140h-576v-454h482v-146h-482v-510h619v-145h-789zM268 1729l62 75l243 -147l234 147l55 -75l-297 -236z" />
<glyph unicode="&#x11b;" d="M100 520q0 244 124 386.5t304 142.5q170 0 277 -113q66 -70 91.5 -160t25.5 -270v-23h-637v-24q0 -152 47 -223q82 -125 254 -125q145 0 250 96l61 -103q-139 -127 -344 -127q-211 0 -332 144.5t-121 398.5zM233 1395l62 75l244 -147l233 147l55 -75l-297 -236zM285 604 h467q-2 158 -47 227q-58 91 -185 91q-223 0 -235 -318z" />
<glyph unicode="&#x147;" horiz-adv-x="1280" d="M174 0v1401h195l467 -895q49 -92 131 -293q-8 121 -19 426l-6 762h166v-1401h-176l-451 858q-117 223 -159 336q16 -193 18 -381l8 -813h-174zM350 1729l62 75l243 -147l234 147l55 -75l-297 -236z" />
<glyph unicode="&#x148;" horiz-adv-x="1097" d="M137 1001l156 43q37 -80 37 -159q158 158 321 157q82 0 150.5 -40.5t99.5 -108.5q25 -55 25 -119v-774h-162v690q0 129 -38 171t-112 42q-61 0 -144 -42t-138 -101v-760h-156v760q0 104 -6 143t-33 98zM242 1395l61 75l244 -147l233 147l56 -75l-297 -236z" />
<glyph unicode="&#x153;" horiz-adv-x="1353" d="M117 709q0 334 149.5 527.5t409.5 193.5q289 0 442 -230q127 -188 127 -520q0 -385 -205 -571q-150 -135 -356 -136q-244 0 -399 179q-168 192 -168 557zM303 743q0 -336 90 -489q39 -66 125 -109t174 -43q168 0 262 121q102 131 103 432q0 304 -68 447q-92 193 -313 192 q-98 0 -179 -44t-122 -120q-72 -135 -72 -387zM420 1540v111h520v-111h-520z" />
<glyph unicode="&#x158;" horiz-adv-x="1169" d="M186 0v1403h328q244 0 354 -90q139 -113 140 -295q0 -174 -102.5 -279.5t-270.5 -105.5h-21q63 -51 142 -158q25 -35 114 -164q49 -70 209 -311h-211q-41 90 -108 195q-139 211 -250 348q-41 49 -68 65q-33 23 -88 25v-633h-168zM248 1729l61 75l244 -147l233 147l56 -75 l-297 -236zM356 737h150q178 0 251.5 71t73.5 212q0 70 -38.5 130t-98.5 83q-74 29 -176 29h-162v-525z" />
<glyph unicode="&#x159;" horiz-adv-x="657" d="M127 1395l61 75l244 -147l234 147l55 -75l-297 -236zM141 1004l160 43q35 -76 35 -152v-14q121 170 287 170q25 0 55 -11l-66 -174q-27 8 -45 8q-61 0 -121.5 -35.5t-89.5 -88.5q-18 -37 -18 -111v-639h-160v778q0 141 -37 226z" />
<glyph unicode="&#x160;" horiz-adv-x="1134" d="M70 100l73 131q168 -121 377 -120q141 0 223 61q100 76 101 201q0 186 -252 262l-141 43q-184 55 -250 125q-88 92 -88 229q0 180 124.5 292t329.5 112q225 0 424 -136l-73 -120q-182 119 -343 118q-131 0 -205.5 -61t-74.5 -170q0 -84 54 -137t179 -92l162 -52 q174 -55 248 -141q92 -106 92 -248q0 -209 -194 -338q-129 -86 -316 -86q-246 0 -450 127zM264 1729l62 75l243 -147l234 147l55 -75l-297 -236z" />
<glyph unicode="&#x161;" horiz-adv-x="913" d="M59 74l62 119q158 -96 323 -97q94 0 150.5 47t56.5 129q0 133 -168 168l-127 27q-125 27 -191.5 101.5t-66.5 179.5q0 137 101.5 225t261.5 88q168 0 311 -82l-59 -119q-154 74 -256 74q-88 0 -140.5 -46t-52.5 -122q0 -55 30 -92t118 -56l135 -28q272 -57 272 -285 q0 -150 -106.5 -242t-278.5 -92q-207 0 -375 103zM147 1395l62 75l244 -147l233 147l55 -75l-297 -236z" />
<glyph unicode="&#x164;" horiz-adv-x="1026" d="M47 1264v141h930l-10 -141h-381v-1264h-162v1264h-377zM199 1729l61 75l244 -147l233 147l56 -75l-297 -236z" />
<glyph unicode="&#x165;" horiz-adv-x="659" d="M55 897v125h133v12q0 27 15 213l2 27l166 37q-21 -164 -21 -289h258l-49 -125h-215v-655q0 -86 28.5 -119t102.5 -33q61 0 103 21l22 -103q-78 -41 -180 -41q-231 0 -232 232v698h-133zM428 1192q88 41 98 129q-6 -2 -16 -2q-33 0 -56.5 27.5t-23.5 66.5q0 45 29.5 77 t72.5 32q51 0 84 -40t33 -104q0 -80 -55 -149q-29 -37 -45 -51q-29 -25 -74 -48l-8 -4z" />
<glyph unicode="&#x16e;" horiz-adv-x="1247" d="M162 424v981h166v-899q0 -150 14 -215q37 -172 285 -172q182 0 247 88q53 72 54 239v959h166v-977q0 -133 -13 -186q-20 -94 -94 -158q-125 -109 -369 -109q-315 0 -415 203q-41 82 -41 246zM420 1606q0 88 64.5 152.5t152.5 64.5t150.5 -63.5t62.5 -153.5 q0 -88 -63.5 -152.5t-153.5 -64.5q-88 0 -150.5 63.5t-62.5 153.5zM512 1606q0 -49 37 -86t84 -37q49 0 86 36.5t37 86.5q0 49 -35 86t-82 37q-51 0 -89 -37t-38 -86z" />
<glyph unicode="&#x16f;" horiz-adv-x="1097" d="M174 262v750l158 30v-733q0 -129 58.5 -168t127.5 -39q76 0 147.5 51.5t112.5 133.5v723l158 26v-723q0 -141 25 -190q14 -29 45 -57l-103 -109q-92 76 -110 164q-117 -156 -324 -156q-295 0 -295 297zM360 1288q0 88 64.5 152.5t153.5 64.5q88 0 150.5 -63.5 t62.5 -153.5q0 -88 -63.5 -152.5t-154.5 -64.5q-88 0 -150.5 63.5t-62.5 153.5zM453 1288q0 -49 36.5 -86t83.5 -37q49 0 86 37t37 86t-34.5 86t-81.5 37q-51 0 -89 -37t-38 -86z" />
<glyph unicode="&#x17d;" horiz-adv-x="991" d="M51 0v129l600 987q55 92 90 135q-39 -2 -145 -2h-524l47 142h801v-144l-584 -971q-25 -41 -86 -135q49 2 121 2h557l-43 -143h-834zM221 1729l62 75l243 -147l234 147l55 -75l-297 -236z" />
<glyph unicode="&#x17e;" horiz-adv-x="878" d="M63 0v123l555 768h-512v127h680v-131l-530 -764h563l-76 -123h-680zM150 1395l61 75l244 -147l233 147l55 -75l-297 -236z" />
<glyph unicode="&#x2c6;" horiz-adv-x="1247" d="M162 424v981h166v-899q0 -150 14 -215q37 -172 285 -172q182 0 247 88q53 72 54 239v959h166v-977q0 -133 -13 -186q-20 -94 -94 -158q-102 -90 -274 -104q-61 -66 -62 -130q0 -63 64 -63q53 0 106 25l37 -82q-78 -41 -143 -41q-80 0 -125 44t-45 107q0 72 39 135 q-287 12 -381 203q-41 84 -41 246z" />
<glyph unicode="&#x2c7;" horiz-adv-x="823" d="M49 1419l74 90q141 -133 285 -133q112 0 276 133l64 -90q-43 -63 -125 -133q-123 -102 -224 -102q-102 0 -223 102q-76 63 -127 133z" />
<glyph unicode="&#x2d9;" d="M133 1454l160 39q16 -49 20 -80q12 -90 13 -215v-1198h-160v1163q-1 124 -19 226q-2 16 -14 65zM332 578l389 442h201l-402 -442l494 -578h-213zM440 -330q70 31 80 103q-6 -2 -14 -2q-27 0 -45.5 22.5t-18.5 52.5q0 35 25 61.5t57 26.5q41 0 67.5 -32.5t26.5 -81.5 q0 -63 -45 -121q-28 -37 -94 -78l-8 -4z" />
<glyph unicode="&#x2da;" horiz-adv-x="991" d="M51 0v129l600 987q55 92 90 135q-39 -2 -145 -2h-524l47 142h801v-144l-584 -971q-25 -41 -86 -135q49 2 121 2h557l-43 -143h-834zM420 1620q0 43 30.5 73.5t73.5 30.5q45 0 76 -30.5t31 -73.5q0 -45 -30 -77t-75 -32t-75.5 32t-30.5 77z" />
<glyph unicode="&#x2db;" horiz-adv-x="1243" d="M111 694q0 397 217 590q152 133 366 133q223 0 385 -139l-75 -104q-160 109 -306 108q-266 0 -350 -238q-55 -156 -55 -356q0 -283 98 -426q47 -68 142.5 -108.5t197.5 -40.5q135 0 223 55v428h-282l-33 139h473v-655q-143 -92 -348 -105l-8 -34q119 -18 118 -134 q0 -57 -45 -102q-51 -51 -135 -51q-70 0 -151 45l39 86q63 -29 112 -29q66 0 66 56q0 53 -70 53q-31 0 -69 -4l32 114q-227 23 -368 175q-174 188 -174 544z" />
<glyph unicode="&#x2dc;" horiz-adv-x="1097" d="M174 262v750l158 30v-733q0 -129 58.5 -168t127.5 -39q76 0 147.5 51.5t112.5 133.5v723l158 26v-723q0 -141 25 -190q14 -29 45 -57l-103 -109l-2 2q-45 -57 -45 -109q0 -63 64 -63q53 0 106 25l37 -82q-78 -41 -143 -41q-80 0 -125 44t-45 107q-1 103 79 191 q-25 35 -36 90q-117 -156 -324 -156q-295 0 -295 297z" />
<glyph unicode="&#x2dd;" horiz-adv-x="878" d="M63 0v123l555 768h-512v127h680v-131l-530 -764h563l-76 -123h-680zM344 1292q0 43 31 74t74 31q45 0 75.5 -31t30.5 -74q0 -45 -29.5 -76.5t-74.5 -31.5t-76 31.5t-31 76.5z" />
<glyph unicode="&#x3a9;" horiz-adv-x="952" d="M166 1575l360 227l74 -135l-389 -174zM184 0v1405h168v-1264h555l-22 -141h-701z" />
<glyph unicode="&#x3c0;" horiz-adv-x="952" d="M184 0v1405h168v-1264h555l-22 -141h-701zM469 -330q70 31 80 103q-6 -2 -14 -2q-27 0 -45.5 22.5t-18.5 52.5q0 35 24.5 61.5t57.5 26.5q41 0 67.5 -32.5t26.5 -81.5q0 -63 -45 -121q-28 -37 -94 -78l-8 -4z" />
<glyph unicode="&#x2000;" horiz-adv-x="911" />
<glyph unicode="&#x2001;" horiz-adv-x="1823" />
<glyph unicode="&#x2002;" horiz-adv-x="911" />
<glyph unicode="&#x2003;" horiz-adv-x="1823" />
<glyph unicode="&#x2004;" horiz-adv-x="607" />
<glyph unicode="&#x2005;" horiz-adv-x="455" />
<glyph unicode="&#x2006;" horiz-adv-x="303" />
<glyph unicode="&#x2007;" horiz-adv-x="303" />
<glyph unicode="&#x2008;" horiz-adv-x="227" />
<glyph unicode="&#x2009;" horiz-adv-x="364" />
<glyph unicode="&#x200a;" horiz-adv-x="101" />
<glyph unicode="&#x2010;" horiz-adv-x="618" d="M117 469v156h391v-156h-391z" />
<glyph unicode="&#x2011;" horiz-adv-x="618" d="M117 469v156h391v-156h-391z" />
<glyph unicode="&#x2012;" horiz-adv-x="618" d="M117 469v156h391v-156h-391z" />
<glyph unicode="&#x2013;" horiz-adv-x="985" d="M-6 512v121h993v-121h-993z" />
<glyph unicode="&#x2014;" horiz-adv-x="1964" d="M254 512v121h1458v-121h-1458z" />
<glyph unicode="&#x2018;" horiz-adv-x="532" d="M104 1106q0 111 78 209q55 69 164 135l10 6l58 -90q-121 -59 -140 -182q25 4 23 4q47 0 80 -39t33 -92q0 -63 -42 -106.5t-102 -43.5q-72 0 -117 55.5t-45 143.5z" />
<glyph unicode="&#x2019;" horiz-adv-x="532" d="M98 971q123 59 140 182q-10 -2 -23 -2q-47 0 -80 38t-33 93q0 61 42 104.5t102 43.5q72 0 117 -55.5t45 -141.5q0 -113 -78 -211q-55 -69 -164 -135l-10 -6z" />
<glyph unicode="&#x201a;" horiz-adv-x="546" d="M117 -203q121 59 137 183q-10 -2 -23 -3q-47 0 -79.5 39t-32.5 93q0 61 42 104t101 43q72 0 117 -55.5t45 -141.5q0 -113 -78 -211q-58 -72 -162 -135l-10 -6z" />
<glyph unicode="&#x201c;" horiz-adv-x="933" d="M104 1106q0 111 78 209q55 69 164 135l10 6l58 -90q-121 -59 -140 -182q25 4 23 4q47 0 80 -39t33 -92q0 -63 -42 -106.5t-102 -43.5q-72 0 -117 55.5t-45 143.5zM508 1106q0 111 78 209q55 69 164 135l10 6l57 -90q-121 -59 -139 -182q25 4 22 4q47 0 81 -39t34 -92 q0 -63 -43 -106.5t-102 -43.5q-72 0 -117 55.5t-45 143.5z" />
<glyph unicode="&#x201d;" horiz-adv-x="940" d="M98 971q123 59 140 182q-10 -2 -23 -2q-47 0 -80 38t-33 93q0 61 42 104.5t102 43.5q72 0 117 -55.5t45 -141.5q0 -113 -78 -211q-55 -69 -164 -135l-10 -6zM502 971q123 59 139 182q-10 -2 -23 -2q-47 0 -79.5 38t-32.5 93q0 61 42 104.5t101 43.5q72 0 117 -55.5 t45 -141.5q0 -113 -78 -211q-51 -65 -164 -135l-8 -6z" />
<glyph unicode="&#x201e;" horiz-adv-x="944" d="M117 -203q121 59 137 183q-10 -2 -23 -3q-47 0 -79.5 39t-32.5 93q0 61 42 104t101 43q72 0 117 -55.5t45 -141.5q0 -113 -78 -211q-58 -72 -162 -135l-10 -6zM520 -203q121 59 137 183q-10 -2 -20 -3q-47 0 -81 39t-34 93q0 61 42 104t104 43q72 0 116.5 -55.5 t44.5 -141.5q0 -111 -79 -211q-58 -72 -162 -135l-10 -6z" />
<glyph unicode="&#x2020;" horiz-adv-x="888" d="M53 932v141h322v332h162v-332h327l-20 -141h-307v-932h-162v932h-322z" />
<glyph unicode="&#x2021;" horiz-adv-x="657" d="M141 1004l160 43q35 -76 35 -152v-14q121 170 287 170q25 0 55 -11l-66 -174q-27 8 -45 8q-61 0 -121.5 -35.5t-89.5 -88.5q-18 -37 -18 -111v-639h-160v778q0 141 -37 226zM174 -330q70 31 80 103q-6 -2 -14 -2q-27 0 -45.5 22.5t-18.5 52.5q0 35 24.5 61.5t57.5 26.5 q41 0 67.5 -32.5t26.5 -81.5q0 -63 -45 -121q-28 -37 -94 -78l-8 -4z" />
<glyph unicode="&#x2022;" d="M150 725q0 152 106 257t256 105q152 0 257 -105t105 -257q0 -150 -105 -256.5t-257 -106.5q-150 0 -256 106.5t-106 256.5z" />
<glyph unicode="&#x2026;" horiz-adv-x="1409" d="M94 115q0 57 39 96t96 39q59 0 99.5 -39t40.5 -96t-40 -99.5t-96 -42.5q-57 0 -98 41.5t-41 100.5zM565 115q0 57 39 96t96 39q59 0 99.5 -39t40.5 -96t-40 -99.5t-95 -42.5q-57 0 -98.5 41.5t-41.5 100.5zM1036 115q0 57 39 96t96 39q59 0 99.5 -39t40.5 -96t-40 -99.5 t-95 -42.5q-57 0 -98.5 41.5t-41.5 100.5z" />
<glyph unicode="&#x202f;" horiz-adv-x="364" />
<glyph unicode="&#x2039;" horiz-adv-x="643" d="M119 492l293 438l112 -74l-239 -364l239 -365l-112 -74z" />
<glyph unicode="&#x203a;" horiz-adv-x="643" d="M119 127l239 365l-239 364l112 74l293 -438l-293 -439z" />
<glyph unicode="&#x2044;" horiz-adv-x="657" d="M141 1004l160 43q35 -76 35 -152v-14q121 170 287 170q25 0 55 -11l-66 -174q-27 8 -45 8q-61 0 -121.5 -35.5t-89.5 -88.5q-18 -37 -18 -111v-639h-160v778q0 141 -37 226zM223 1241l361 227l73 -135l-389 -174z" />
<glyph unicode="&#x205f;" horiz-adv-x="455" />
<glyph unicode="&#x2122;" horiz-adv-x="2027" d="M131 1315v135h668v-135h-267v-709h-135v709h-266zM969 606v844h215l252 -641l252 641h208v-844h-135v709h-4l-278 -709h-93l-278 709h-4v-709h-135z" />
<glyph unicode="&#x220f;" horiz-adv-x="509" d="M106 502v151l68 68v453q0 199 -29 282l166 33q25 -72 25 -315v-289l86 86v-152l-86 -86v-528q0 -51 6 -70q12 -33 51 -33q6 0 21 4l32 -104q-49 -23 -102 -22q-74 0 -122 44t-48 144v401z" />
<glyph unicode="&#x221e;" horiz-adv-x="509" d="M113 -160q0 80 55 160v1016l170 26v-1042h-37q-82 -76 -82 -150q0 -63 64 -63q53 0 106 25l37 -82q-78 -41 -143 -41q-80 0 -125 44t-45 107zM129 1333q0 53 37 90t88 37q53 0 89 -35.5t36 -89.5q0 -51 -36 -88t-89 -37q-51 0 -88 36t-37 87z" />
<glyph unicode="&#x222b;" horiz-adv-x="509" d="M145 1456l166 33q25 -72 25 -315v-969q0 -51 6 -70q12 -33 51 -33q6 0 21 4l32 -104q-49 -23 -102 -22q-74 0 -122 44t-48 144v1006q0 199 -29 282zM223 -330q70 31 80 103q-6 -2 -14 -2q-27 0 -45.5 22.5t-18.5 52.5q0 35 24.5 61.5t57.5 26.5q41 0 67.5 -32.5 t26.5 -81.5q0 -63 -45 -121q-28 -37 -94 -78l-8 -4z" />
<glyph unicode="&#x2248;" horiz-adv-x="1280" d="M174 0v1401h195l467 -895q49 -92 131 -293q-8 121 -19 426l-6 762h166v-1401h-176l-451 858q-117 223 -159 336q16 -193 18 -381l8 -813h-174zM350 1729l62 75l243 -147l234 147l55 -75l-297 -236z" />
<glyph unicode="&#xe000;" horiz-adv-x="1013" d="M0 0v1014h1014v-1014h-1014z" />
</font>
</defs>
</svg>
